<svg xmlns="http://www.w3.org/2000/svg" width="64" height="64" viewBox="0 0 64 64" fill="none">
  <defs>
    <linearGradient id="bg" x1="0" y1="0" x2="64" y2="64" gradientUnits="userSpaceOnUse">
      <stop stop-color="#ec9269"/>
      <stop offset="1" stop-color="#d9744a"/>
    </linearGradient>
  </defs>
  <rect width="64" height="64" rx="15" fill="url(#bg)"/>
  <!-- Baby bottle, slightly tilted -->
  <g transform="rotate(-12 32 34)" stroke="#ffffff" stroke-width="2.6" stroke-linecap="round" stroke-linejoin="round">
    <!-- nipple -->
    <path d="M28.5 12.5q3.5-3 7 0" fill="#fff7f3"/>
    <!-- collar -->
    <rect x="26.5" y="16" width="11" height="5.5" rx="1.6" fill="#fff7f3"/>
    <!-- body -->
    <path d="M27 22h10a3 3 0 0 1 3 3v22a5 5 0 0 1-5 5h-6a5 5 0 0 1-5-5V25a3 3 0 0 1 3-3z" fill="#ffffff"/>
    <!-- measurement marks -->
    <line x1="34.5" y1="29" x2="37" y2="29"/>
    <line x1="34.5" y1="35" x2="37" y2="35"/>
    <line x1="34.5" y1="41" x2="37" y2="41"/>
  </g>
</svg>
